<svg preserveAspectRatio="none" width="100%" height="100%" overflow="visible" style="display: block;" viewBox="0 0 102 43" fill="none" xmlns="http://www.w3.org/2000/svg">
<g id="Arrow Right">
<rect id="Rectangle 37" width="102" height="43" fill="var(--fill-0, white)"/>
<path id="Vector" d="M88.4506 35.179C92.1759 38.9758 96.9701 36.6821 96.9998 32.5579C97.0307 28.2558 89.6161 24.4285 89.6161 24.4285C79.9718 34.2048 77.7564 36.9679 72.6348 36.9299C69.073 36.9036 66.4916 33.992 66.5172 30.4242C66.5429 26.8564 68.9174 23.6225 72.7299 23.6994C74.4637 23.7344 76.4043 24.4714 77.4583 26.2462" stroke="var(--stroke-0, black)" stroke-width="3"/>
<path id="Vector 2" d="M40.5469 22.1697L43.536 35.4754L51.9419 10.0663L56.0164 35.6718L64.5267 16.0584" stroke="var(--stroke-0, black)" stroke-width="3" stroke-miterlimit="16"/>
<path id="Vector_2" d="M6 38.3298V6.62769H12.8505C14.0345 6.62769 15.8481 6.7535 16.8295 6.98775C21.9216 8.20317 24.3576 11.7362 24.3576 15.8206C24.3576 21.6135 20.301 25.3965 12.8505 25.3965H31.523L21.2455 37.203L37.7021 37.1859" stroke="var(--stroke-0, black)" stroke-width="3"/>
</g>
</svg>
