<svg preserveAspectRatio="none" width="100%" height="100%" overflow="visible" style="display: block;" viewBox="0 0 93.9999 37.346" fill="none" xmlns="http://www.w3.org/2000/svg">
<g id="Arrow Left">
<path id="Vector" d="M83.9506 32.4375C87.6759 36.2343 92.4701 33.9406 92.4998 29.8164C92.5307 25.5143 85.1161 21.687 85.1161 21.687C75.4719 31.4633 73.2564 34.2264 68.1348 34.1885C64.573 34.1621 61.9916 31.2505 62.0172 27.6827C62.0429 24.1149 64.4174 20.881 68.2299 20.958C69.9638 20.9929 71.9043 21.73 72.9584 23.5047" stroke="var(--stroke-0, white)" stroke-width="3"/>
<path id="Vector 2" d="M36.0467 18.4283L39.0359 31.7339L47.4418 6.32484L51.5162 31.9304L60.0265 12.3169" stroke="var(--stroke-0, white)" stroke-width="3" stroke-miterlimit="16"/>
<path id="Vector_2" d="M1.5 35.5883V3.8862H8.35047C9.53451 3.8862 11.3481 4.01201 12.3295 4.24626C17.4216 5.46169 19.8576 8.99468 19.8576 13.0791C19.8576 18.872 15.801 22.6551 8.35047 22.6551H27.023L16.7455 34.4615L33.2021 34.4444" stroke="var(--stroke-0, white)" stroke-width="3"/>
</g>
</svg>
