<svg width="1043" height="209" viewBox="0 0 1043 209" fill="none" xmlns="http://www.w3.org/2000/svg">
<path fill-rule="evenodd" clip-rule="evenodd" d="M1043 0.000976562L834.821 104.001L1043 208.001H929.357L778 132.386L626.643 208.001H513L721.178 104.001L513 0.000976562H626.644L778 75.6144L929.356 0.000976562H1043Z" fill="white"/>
<path d="M527 0.00195312V208.002H467V0.00195312H527Z" fill="white"/>
<path fill-rule="evenodd" clip-rule="evenodd" d="M60 208.002H0V0.00240409L298.197 0.00240409C366.639 0.0247694 480 -1.99078 480 70.5062C480 143.003 363.677 141.021 298.197 141.003H60V208.002ZM60 101.003V40.0094H298.197C332.583 41.2345 420 38.0057 420 70.5024C420 102.999 335.866 102.157 298.197 101.003H60Z" fill="white"/>
</svg>
